<?xml version="1.0" encoding="utf-8"?>
<!-- Generator: Adobe Illustrator 21.0.0, SVG Export Plug-In . SVG Version: 6.00 Build 0)  -->
<svg version="1.1" id="图层_1" xmlns="http://www.w3.org/2000/svg" xmlns:xlink="http://www.w3.org/1999/xlink" x="0px" y="0px"
	 viewBox="0 0 512 512" style="enable-background:new 0 0 512 512;" xml:space="preserve">
<style type="text/css">
	.st0{fill:#1A1A1A;}
</style>
<path class="st0" d="M256.3,3.7C117.3,3.7,4.6,116.4,4.6,255.4s112.7,251.7,251.7,251.7c139,0,251.7-112.7,251.7-251.7
	S395.3,3.7,256.3,3.7z M256.3,442.6c-103.4,0-187.2-83.8-187.2-187.2S152.9,68.3,256.3,68.3c103.4,0,187.2,83.8,187.2,187.2
	S359.7,442.6,256.3,442.6z"/>
<g>
	<g>
		<circle class="st0" cx="362.8" cy="148.6" r="17.6"/>
	</g>
	<g>
		<circle class="st0" cx="362.8" cy="361.8" r="17.6"/>
	</g>
	<g>
		<circle class="st0" cx="149.7" cy="148.6" r="17.6"/>
	</g>
	<g>
		<circle class="st0" cx="105.4" cy="255.2" r="8.8"/>
	</g>
	<g>
		<circle class="st0" cx="256.4" cy="406.3" r="8.8"/>
	</g>
	<g>
		<circle class="st0" cx="407.2" cy="255.2" r="8.8"/>
	</g>
	<g>
		<circle class="st0" cx="256.4" cy="104.5" r="8.8"/>
	</g>
	<g>
		<circle class="st0" cx="256.4" cy="148.6" r="8.8"/>
	</g>
	<g>
		<circle class="st0" cx="149.7" cy="361.8" r="17.6"/>
	</g>
	<g>
		<circle class="st0" cx="256.3" cy="361.8" r="17.6"/>
	</g>
	<g>
		<rect x="359.6" y="148.6" class="st0" width="6.5" height="213.2"/>
	</g>
	<g>
		<line class="st0" x1="149.7" y1="148.6" x2="362.8" y2="148.6"/>
		<rect x="149.7" y="147.5" class="st0" width="213.2" height="2.2"/>
	</g>
	<g>
		
			<rect x="308.5" y="136.1" transform="matrix(0.8947 -0.4466 0.4466 0.8947 -81.3809 165.1574)" class="st0" width="2.2" height="238.3"/>
	</g>
	<g>
		
			<rect x="83.8" y="254.1" transform="matrix(0.4472 -0.8944 0.8944 0.4472 -116.0163 322.6645)" class="st0" width="238.4" height="2.2"/>
	</g>
	<g>
		<rect x="146.4" y="148.6" class="st0" width="6.5" height="213.2"/>
	</g>
	<g>
		<line class="st0" x1="362.8" y1="361.8" x2="149.7" y2="361.8"/>
		<rect x="149.7" y="360.7" class="st0" width="213.2" height="2.2"/>
	</g>
	<g>
		
			<rect x="199.7" y="136" transform="matrix(0.8944 -0.4472 0.4472 0.8944 -92.7003 117.7054)" class="st0" width="6.5" height="238.3"/>
	</g>
	<g>
		
			<rect x="190.4" y="251.9" transform="matrix(0.4472 -0.8944 0.8944 0.4472 -57.1448 417.9207)" class="st0" width="238.3" height="6.5"/>
	</g>
	<g>
		
			<rect x="69.7" y="200.9" transform="matrix(0.3826 -0.9239 0.9239 0.3826 -107.8974 242.5064)" class="st0" width="115.6" height="2.2"/>
	</g>
	<g>
		<polygon class="st0" points="148.7,362.2 104.3,255.8 106.3,254.9 150.7,361.4 		"/>
	</g>
	<g>
		<rect x="255.2" y="361.8" class="st0" width="2.2" height="44.5"/>
	</g>
	<g>
		<rect x="255.2" y="104.1" class="st0" width="2.2" height="44.5"/>
	</g>
	<g>
		
			<rect x="145.3" y="125.4" transform="matrix(0.9239 -0.3826 0.3826 0.9239 -32.9586 87.2714)" class="st0" width="115.3" height="2.2"/>
	</g>
	<g>
		
			<rect x="308.5" y="68.8" transform="matrix(0.3825 -0.924 0.924 0.3825 74.25 364.1662)" class="st0" width="2.2" height="115.4"/>
	</g>
	<g>
		
			<rect x="383.9" y="144.2" transform="matrix(0.9238 -0.3829 0.3829 0.9238 -47.998 162.8148)" class="st0" width="2.2" height="115.6"/>
	</g>
	<g>
		
			<rect x="327.2" y="307.7" transform="matrix(0.3826 -0.9239 0.9239 0.3826 -47.586 546.3253)" class="st0" width="115.6" height="2.2"/>
	</g>
	<g>
		
			<rect x="251.8" y="382.9" transform="matrix(0.9232 -0.3843 0.3843 0.9232 -123.7998 148.5311)" class="st0" width="115.9" height="2.2"/>
	</g>
	<g>
		<polygon class="st0" points="255.8,407.3 148.8,362.8 149.7,360.8 256.7,405.3 		"/>
	</g>
</g>
</svg>
