<?xml version="1.0" encoding="utf-8"?>
<!-- Generator: Adobe Illustrator 21.0.0, SVG Export Plug-In . SVG Version: 6.00 Build 0)  -->
<svg version="1.1" id="图层_1" xmlns="http://www.w3.org/2000/svg" xmlns:xlink="http://www.w3.org/1999/xlink" x="0px" y="0px"
	 viewBox="0 0 80 78" style="enable-background:new 0 0 80 78;" xml:space="preserve">
<style type="text/css">
	.st0{fill:#FFFFFF;}
	.st1{fill:none;stroke:#38393A;stroke-width:3;}
	.st2{fill:#38393A;}
	.st3{fill:#1A1A1A;}
</style>
<g id="Oval">
	<g>
		<circle id="path-1" class="st0" cx="34" cy="34" r="34"/>
	</g>
	<circle class="st1" cx="34" cy="34" r="32.5"/>
</g>
<g id="Group-6" transform="translate(46.000000, 44.000000)">
	<g id="Oval-Copy">
		<g>
			<circle id="path-2" class="st0" cx="17" cy="17" r="17"/>
		</g>
		<circle class="st1" cx="17" cy="17" r="15.5"/>
	</g>
	<path id="Combined-Shape" class="st2" d="M19.1,15.4h6.4v4.2h-6.4V26h-4.2v-6.4H8.5v-4.2h6.4V9h4.2V15.4z"/>
</g>
<g>
	<g>
		<g>
			<path class="st3" d="M59.6,36.8c-0.9,1.2-2.4,2-4,2c-2.7,0-5-2.2-5-5c0-2.7,2.2-5,5-5c1.6,0,3.1,0.8,4,2l1.4-1
				c-1.2-1.6-3.2-2.7-5.4-2.7c-3.7,0-6.7,3-6.7,6.7c0,3.7,3,6.7,6.7,6.7c2.2,0,4.2-1.1,5.4-2.7L59.6,36.8z"/>
		</g>
		<g>
			<g>
				<path class="st3" d="M42.9,26.1l-0.9,2l-5.8,12.4H38l1.3-2.9h7l1.3,2.9h1.9l-5.8-12.4L42.9,26.1z M40.2,35.9l2.7-5.8l2.7,5.8
					H40.2z"/>
			</g>
		</g>
		<g>
			<polygon class="st3" points="15,33.8 10.1,29 10,28.8 8.3,27.1 8.3,27.1 8.3,29.6 8.3,40.5 10,40.5 10,31.3 13.7,35 15,36.2 
				16.2,35 19.9,31.3 19.9,40.5 21.6,40.5 21.6,29.6 21.6,27.1 19.9,28.8 			"/>
		</g>
		<g>
			<g>
				<path class="st3" d="M30,27.1c-3.7,0-6.7,3-6.7,6.7c0,3.7,3,6.7,6.7,6.7c3.7,0,6.7-3,6.7-6.7C36.7,30.1,33.7,27.1,30,27.1z
					 M30,38.8c-2.7,0-5-2.2-5-5s2.2-5,5-5c2.7,0,5,2.2,5,5S32.8,38.8,30,38.8z"/>
			</g>
		</g>
		<g>
			<g>
				<circle class="st3" cx="32.9" cy="31" r="0.5"/>
			</g>
			<g>
				<circle class="st3" cx="32.9" cy="36.6" r="0.5"/>
			</g>
			<g>
				<circle class="st3" cx="27.2" cy="31" r="0.5"/>
			</g>
			<g>
				<circle class="st3" cx="26" cy="33.8" r="0.2"/>
			</g>
			<g>
				<circle class="st3" cx="30" cy="37.8" r="0.2"/>
			</g>
			<g>
				<circle class="st3" cx="34.1" cy="33.8" r="0.2"/>
			</g>
			<g>
				<circle class="st3" cx="30" cy="29.8" r="0.2"/>
			</g>
			<g>
				<circle class="st3" cx="30" cy="31" r="0.2"/>
			</g>
			<g>
				<circle class="st3" cx="27.2" cy="36.6" r="0.5"/>
			</g>
			<g>
				<circle class="st3" cx="30" cy="36.6" r="0.5"/>
			</g>
			<g>
				<rect x="32.8" y="31" class="st3" width="0.2" height="5.7"/>
			</g>
			<g>
				<line class="st3" x1="27.2" y1="31" x2="32.9" y2="31"/>
				<rect x="27.2" y="30.9" class="st3" width="5.7" height="0.1"/>
			</g>
			<g>
				
					<rect x="31.4" y="30.6" transform="matrix(0.8947 -0.4466 0.4466 0.8947 -11.7849 17.6096)" class="st3" width="0.1" height="6.3"/>
			</g>
			<g>
				
					<rect x="25.5" y="33.8" transform="matrix(0.4472 -0.8944 0.8944 0.4472 -14.4081 44.2895)" class="st3" width="6.3" height="0.1"/>
			</g>
			<g>
				<rect x="27.1" y="31" class="st3" width="0.2" height="5.7"/>
			</g>
			<g>
				<line class="st3" x1="32.9" y1="36.6" x2="27.2" y2="36.6"/>
				<rect x="27.2" y="36.6" class="st3" width="5.7" height="0.1"/>
			</g>
			<g>
				
					<rect x="28.5" y="30.6" transform="matrix(0.8944 -0.4472 0.4472 0.8944 -12.0945 16.3702)" class="st3" width="0.2" height="6.3"/>
			</g>
			<g>
				
					<rect x="28.3" y="33.7" transform="matrix(0.4472 -0.8944 0.8944 0.4472 -12.8441 46.8201)" class="st3" width="6.3" height="0.2"/>
			</g>
			<g>
				
					<rect x="25.1" y="32.4" transform="matrix(0.3826 -0.9239 0.9239 0.3826 -13.4879 44.5914)" class="st3" width="3.1" height="0.1"/>
			</g>
			<g>
				<polygon class="st3" points="27.2,36.6 26,33.8 26.1,33.8 27.2,36.6 				"/>
			</g>
			<g>
				<rect x="30" y="36.6" class="st3" width="0.1" height="1.2"/>
			</g>
			<g>
				<rect x="30" y="29.8" class="st3" width="0.1" height="1.2"/>
			</g>
			<g>
				
					<rect x="27.1" y="30.4" transform="matrix(0.9239 -0.3826 0.3826 0.9239 -9.4462 13.2631)" class="st3" width="3.1" height="0.1"/>
			</g>
			<g>
				
					<rect x="31.4" y="28.9" transform="matrix(0.3825 -0.924 0.924 0.3825 -8.6475 47.8276)" class="st3" width="0.1" height="3.1"/>
			</g>
			<g>
				
					<rect x="33.4" y="30.9" transform="matrix(0.9238 -0.3829 0.3829 0.9238 -9.8511 15.2807)" class="st3" width="0.1" height="3.1"/>
			</g>
			<g>
				
					<rect x="31.9" y="35.2" transform="matrix(0.3826 -0.9239 0.9239 0.3826 -11.8856 52.6626)" class="st3" width="3.1" height="0.1"/>
			</g>
			<g>
				
					<rect x="29.9" y="37.2" transform="matrix(0.9232 -0.3843 0.3843 0.9232 -11.8897 14.9503)" class="st3" width="3.1" height="0.1"/>
			</g>
			<g>
				<polygon class="st3" points="30,37.8 27.2,36.7 27.2,36.6 30.1,37.8 				"/>
			</g>
		</g>
	</g>
</g>
</svg>
