<?xml version="1.0" encoding="utf-8"?>
<!-- Generator: Adobe Illustrator 21.0.0, SVG Export Plug-In . SVG Version: 6.00 Build 0)  -->
<svg version="1.1" id="Layer_1" xmlns:ev="http://www.w3.org/2001/xml-events"
	 xmlns="http://www.w3.org/2000/svg" xmlns:xlink="http://www.w3.org/1999/xlink" x="0px" y="0px" viewBox="0 0 318.6 318.6"
	 style="enable-background:new 0 0 318.6 318.6;" xml:space="preserve">
<style type="text/css">
	.st0{fill:#1A1A1A;}
</style>
<g>
	<g>
		<g>
			<path class="st0" d="M281.2,167.8c-4.4,6-11.5,9.8-19.5,9.8c-13.4,0-24.3-10.9-24.3-24.3c0-13.4,10.9-24.3,24.3-24.3
				c7.9,0,15,3.8,19.4,9.7l6.8-4.9c-5.9-8-15.5-13.2-26.2-13.2c-18,0-32.6,14.6-32.6,32.6c0,18,14.6,32.6,32.6,32.6
				c10.8,0,20.4-5.2,26.3-13.3L281.2,167.8z"/>
		</g>
		<g>
			<g>
				<path class="st0" d="M199.4,115.6l-4.6,9.8L166.7,186h9.1l6.5-14h34.1l6.5,14h9.1l-28.1-60.5L199.4,115.6z M186.2,163.6
					l13.1-28.3l13.1,28.3H186.2z"/>
			</g>
		</g>
		<g>
			<polygon class="st0" points="63.2,153.4 39.6,129.7 38.9,129.1 30.5,120.7 30.5,120.7 30.5,132.6 30.5,186 38.9,186 38.9,141 
				57.2,159.3 63.2,165.2 69.1,159.3 87.5,141 87.5,186 95.8,186 95.8,132.6 95.8,120.7 87.5,129.1 			"/>
		</g>
		<g>
			<g>
				<path class="st0" d="M136.8,120.7c-18,0-32.6,14.6-32.6,32.6s14.6,32.6,32.6,32.6c18,0,32.6-14.6,32.6-32.6
					S154.9,120.7,136.8,120.7z M136.8,177.6c-13.4,0-24.3-10.9-24.3-24.3c0-13.4,10.9-24.3,24.3-24.3c13.4,0,24.3,10.9,24.3,24.3
					C161.1,166.7,150.2,177.6,136.8,177.6z"/>
			</g>
		</g>
		<g>
			<g>
				<circle class="st0" cx="150.6" cy="139.5" r="2.3"/>
			</g>
			<g>
				<circle class="st0" cx="150.6" cy="167.1" r="2.3"/>
			</g>
			<g>
				<circle class="st0" cx="123" cy="139.5" r="2.3"/>
			</g>
			<g>
				<circle class="st0" cx="117.3" cy="153.3" r="1.1"/>
			</g>
			<g>
				<circle class="st0" cx="136.8" cy="172.9" r="1.1"/>
			</g>
			<g>
				<circle class="st0" cx="156.4" cy="153.3" r="1.1"/>
			</g>
			<g>
				<circle class="st0" cx="136.8" cy="133.8" r="1.1"/>
			</g>
			<g>
				<circle class="st0" cx="136.8" cy="139.5" r="1.1"/>
			</g>
			<g>
				<circle class="st0" cx="123" cy="167.1" r="2.3"/>
			</g>
			<g>
				<circle class="st0" cx="136.8" cy="167.1" r="2.3"/>
			</g>
			<g>
				<rect x="150.2" y="139.5" class="st0" width="0.8" height="27.6"/>
			</g>
			<g>
				<line class="st0" x1="123" y1="139.5" x2="150.6" y2="139.5"/>
				<rect x="123" y="139.3" class="st0" width="27.6" height="0.3"/>
			</g>
			<g>
				
					<rect x="143.6" y="137.9" transform="matrix(0.8947 -0.4466 0.4466 0.8947 -53.3406 80.3432)" class="st0" width="0.3" height="30.9"/>
			</g>
			<g>
				
					<rect x="114.5" y="153.2" transform="matrix(0.4472 -0.8944 0.8944 0.4472 -65.3075 200.9492)" class="st0" width="30.9" height="0.3"/>
			</g>
			<g>
				<rect x="122.6" y="139.5" class="st0" width="0.8" height="27.6"/>
			</g>
			<g>
				<line class="st0" x1="150.6" y1="167.1" x2="123" y2="167.1"/>
				<rect x="123" y="167" class="st0" width="27.6" height="0.3"/>
			</g>
			<g>
				
					<rect x="129.5" y="137.9" transform="matrix(0.8944 -0.4472 0.4472 0.8944 -54.8481 74.2829)" class="st0" width="0.8" height="30.9"/>
			</g>
			<g>
				
					<rect x="128.3" y="152.9" transform="matrix(0.4472 -0.8944 0.8944 0.4472 -57.6719 213.3039)" class="st0" width="30.9" height="0.8"/>
			</g>
			<g>
				
					<rect x="112.6" y="146.3" transform="matrix(0.3826 -0.9239 0.9239 0.3826 -61.1057 201.3758)" class="st0" width="15" height="0.3"/>
			</g>
			<g>
				<polygon class="st0" points="122.9,167.2 117.1,153.4 117.4,153.3 123.1,167.1 				"/>
			</g>
			<g>
				<rect x="136.7" y="167.1" class="st0" width="0.3" height="5.8"/>
			</g>
			<g>
				<rect x="136.7" y="133.7" class="st0" width="0.3" height="5.8"/>
			</g>
			<g>
				
					<rect x="122.4" y="136.5" transform="matrix(0.9239 -0.3826 0.3826 0.9239 -42.3856 60.0955)" class="st0" width="15" height="0.3"/>
			</g>
			<g>
				
					<rect x="143.6" y="129.1" transform="matrix(0.3825 -0.924 0.924 0.3825 -37.4751 217.1738)" class="st0" width="0.3" height="15"/>
			</g>
			<g>
				
					<rect x="153.4" y="138.9" transform="matrix(0.9238 -0.3829 0.3829 0.9238 -44.3601 69.9408)" class="st0" width="0.3" height="15"/>
			</g>
			<g>
				
					<rect x="146" y="160.1" transform="matrix(0.3826 -0.9239 0.9239 0.3826 -53.2834 240.7809)" class="st0" width="15" height="0.3"/>
			</g>
			<g>
				
					<rect x="136.2" y="169.9" transform="matrix(0.9232 -0.3843 0.3843 0.9232 -54.3016 68.3072)" class="st0" width="15" height="0.3"/>
			</g>
			<g>
				<polygon class="st0" points="136.8,173 122.9,167.3 123,167 136.9,172.8 				"/>
			</g>
		</g>
	</g>
</g>
</svg>
