<?xml version="1.0" encoding="utf-8"?>
<!-- Generator: Adobe Illustrator 21.0.0, SVG Export Plug-In . SVG Version: 6.00 Build 0)  -->
<svg version="1.1" id="图层_1" xmlns="http://www.w3.org/2000/svg" xmlns:xlink="http://www.w3.org/1999/xlink" x="0px" y="0px"
	 viewBox="0 0 256 417" style="enable-background:new 0 0 256 417;" xml:space="preserve">
<style type="text/css">
	.st0{fill:#1A1A1A;}
</style>
<g>
	<g>
		<g>
			<path class="st0" d="M249.2,215.3c-4.4,5.9-11.4,9.7-19.3,9.7c-13.3,0-24-10.7-24-24c0-13.3,10.7-24,24-24
				c7.9,0,14.8,3.8,19.2,9.6l6.8-4.8c-5.9-7.9-15.3-13.1-25.9-13.1c-17.8,0-32.3,14.4-32.3,32.3c0,17.8,14.4,32.3,32.3,32.3
				c10.7,0,20.1-5.2,26-13.2L249.2,215.3z"/>
		</g>
		<g>
			<g>
				<path class="st0" d="M168.3,163.7l-4.5,9.7l-27.8,59.8h9l6.4-13.8h33.7l6.4,13.8h9l-27.8-59.8L168.3,163.7z M155.3,211.2l13-28
					l13,28H155.3z"/>
			</g>
		</g>
		<g>
			<polygon class="st0" points="33.7,201 10.4,177.6 9.7,177 1.4,168.7 1.4,168.7 1.4,180.5 1.4,233.2 9.7,233.2 9.7,188.7 
				27.8,206.9 33.7,212.7 39.6,206.9 57.7,188.7 57.7,233.2 66,233.2 66,180.5 66,168.7 57.7,177 			"/>
		</g>
		<g>
			<g>
				<path class="st0" d="M106.5,168.7c-17.8,0-32.3,14.4-32.3,32.3s14.4,32.3,32.3,32.3c17.8,0,32.3-14.4,32.3-32.3
					S124.3,168.7,106.5,168.7z M106.5,225c-13.3,0-24-10.7-24-24s10.7-24,24-24c13.3,0,24,10.7,24,24S119.8,225,106.5,225z"/>
			</g>
		</g>
		<g>
			<g>
				<circle class="st0" cx="120.2" cy="187.3" r="2.3"/>
			</g>
			<g>
				<circle class="st0" cx="120.2" cy="214.6" r="2.3"/>
			</g>
			<g>
				<circle class="st0" cx="92.8" cy="187.3" r="2.3"/>
			</g>
			<g>
				<circle class="st0" cx="87.2" cy="200.9" r="1.1"/>
			</g>
			<g>
				<circle class="st0" cx="106.5" cy="220.3" r="1.1"/>
			</g>
			<g>
				<circle class="st0" cx="125.9" cy="200.9" r="1.1"/>
			</g>
			<g>
				<circle class="st0" cx="106.5" cy="181.6" r="1.1"/>
			</g>
			<g>
				<circle class="st0" cx="106.5" cy="187.3" r="1.1"/>
			</g>
			<g>
				<circle class="st0" cx="92.8" cy="214.6" r="2.3"/>
			</g>
			<g>
				<circle class="st0" cx="106.5" cy="214.6" r="2.3"/>
			</g>
			<g>
				<rect x="119.8" y="187.3" class="st0" width="0.8" height="27.3"/>
			</g>
			<g>
				<line class="st0" x1="92.8" y1="187.3" x2="120.2" y2="187.3"/>
				<rect x="92.8" y="187.1" class="st0" width="27.3" height="0.3"/>
			</g>
			<g>
				
					<rect x="113.2" y="185.7" transform="matrix(0.8947 -0.4466 0.4466 0.8947 -77.8173 71.7823)" class="st0" width="0.3" height="30.5"/>
			</g>
			<g>
				
					<rect x="84.4" y="200.8" transform="matrix(0.4472 -0.8944 0.8944 0.4472 -124.6286 200.2372)" class="st0" width="30.6" height="0.3"/>
			</g>
			<g>
				<rect x="92.4" y="187.3" class="st0" width="0.8" height="27.3"/>
			</g>
			<g>
				<line class="st0" x1="120.2" y1="214.6" x2="92.8" y2="214.6"/>
				<rect x="92.8" y="214.5" class="st0" width="27.3" height="0.3"/>
			</g>
			<g>
				
					<rect x="99.3" y="185.7" transform="matrix(0.8944 -0.4472 0.4472 0.8944 -79.3441 65.7897)" class="st0" width="0.8" height="30.6"/>
			</g>
			<g>
				
					<rect x="98.1" y="200.5" transform="matrix(0.4472 -0.8944 0.8944 0.4472 -117.0814 212.4489)" class="st0" width="30.6" height="0.8"/>
			</g>
			<g>
				
					<rect x="82.6" y="194" transform="matrix(0.3826 -0.9239 0.9239 0.3826 -123.7894 203.0045)" class="st0" width="14.8" height="0.3"/>
			</g>
			<g>
				<polygon class="st0" points="92.7,214.7 87,201 87.3,200.9 93,214.6 				"/>
			</g>
			<g>
				<rect x="106.4" y="214.6" class="st0" width="0.3" height="5.7"/>
			</g>
			<g>
				<rect x="106.4" y="181.6" class="st0" width="0.3" height="5.7"/>
			</g>
			<g>
				
					<rect x="92.3" y="184.3" transform="matrix(0.9239 -0.3826 0.3826 0.9239 -62.985 52.1662)" class="st0" width="14.8" height="0.3"/>
			</g>
			<g>
				
					<rect x="113.2" y="177.1" transform="matrix(0.3825 -0.924 0.924 0.3825 -100.4379 218.624)" class="st0" width="0.3" height="14.8"/>
			</g>
			<g>
				
					<rect x="122.9" y="186.7" transform="matrix(0.9238 -0.3829 0.3829 0.9238 -64.9555 61.895)" class="st0" width="0.3" height="14.8"/>
			</g>
			<g>
				
					<rect x="115.6" y="207.7" transform="matrix(0.3826 -0.9239 0.9239 0.3826 -116.0575 241.9536)" class="st0" width="14.8" height="0.3"/>
			</g>
			<g>
				
					<rect x="105.9" y="217.3" transform="matrix(0.9232 -0.3843 0.3843 0.9232 -74.8695 60.2686)" class="st0" width="14.9" height="0.3"/>
			</g>
			<g>
				<polygon class="st0" points="106.4,220.4 92.7,214.7 92.8,214.5 106.6,220.2 				"/>
			</g>
		</g>
	</g>
</g>
</svg>
